<svg width="81" height="77" viewBox="0 0 81 77" fill="none" xmlns="http://www.w3.org/2000/svg">
<path d="M46.2695 37.9999C43.8095 40.5499 42.3095 42.7999 41.1695 42.6399C40.2095 42.6474 39.3095 41.1499 36.2495 37.9999" stroke="black" stroke-width="3.75" stroke-linecap="round" stroke-linejoin="round"/>
<path d="M41.03 39.9025V27.6025M41 2C26 2 22.25 13.275 22.25 27C22.25 40.725 26 52 41 52C56 52 59.75 40.725 59.75 27C59.75 13.275 56 2 41 2Z" stroke="black" stroke-width="3.75" stroke-linecap="round" stroke-linejoin="round"/>
<path d="M5.91211 73.9023C5.91211 73.668 5.87305 73.459 5.79492 73.2754C5.7168 73.0918 5.58789 72.9277 5.4082 72.7832C5.23242 72.6348 4.99414 72.498 4.69336 72.373C4.39648 72.2441 4.02539 72.1172 3.58008 71.9922C3.1543 71.8711 2.76953 71.7383 2.42578 71.5938C2.08203 71.4492 1.78711 71.2832 1.54102 71.0957C1.29883 70.9082 1.11328 70.6895 0.984375 70.4395C0.855469 70.1855 0.791016 69.8906 0.791016 69.5547C0.791016 69.2266 0.861328 68.9277 1.00195 68.6582C1.14258 68.3887 1.33984 68.1562 1.59375 67.9609C1.85156 67.7656 2.1543 67.6152 2.50195 67.5098C2.85352 67.4043 3.23828 67.3516 3.65625 67.3516C4.25391 67.3516 4.76953 67.4648 5.20312 67.6914C5.64062 67.918 5.97852 68.2246 6.2168 68.6113C6.45898 68.9941 6.58008 69.4238 6.58008 69.9004H5.85938C5.85938 69.5293 5.77148 69.1992 5.5957 68.9102C5.42383 68.6172 5.17383 68.3887 4.8457 68.2246C4.52148 68.0566 4.125 67.9727 3.65625 67.9727C3.1875 67.9727 2.79297 68.0449 2.47266 68.1895C2.15625 68.3301 1.91602 68.5195 1.75195 68.7578C1.5918 68.9922 1.51172 69.2539 1.51172 69.543C1.51172 69.7461 1.55078 69.9336 1.62891 70.1055C1.70703 70.2734 1.83398 70.4316 2.00977 70.5801C2.18945 70.7246 2.42578 70.8613 2.71875 70.9902C3.01172 71.1152 3.37305 71.2344 3.80273 71.3477C4.25586 71.4727 4.6582 71.6113 5.00977 71.7637C5.36133 71.916 5.6582 72.0918 5.90039 72.291C6.14258 72.4863 6.32617 72.7148 6.45117 72.9766C6.57617 73.2383 6.63867 73.543 6.63867 73.8906C6.63867 74.2383 6.56445 74.5508 6.41602 74.8281C6.27148 75.1016 6.06641 75.334 5.80078 75.5254C5.53906 75.7168 5.22852 75.8633 4.86914 75.9648C4.51367 76.0664 4.125 76.1172 3.70312 76.1172C3.32422 76.1172 2.94727 76.0684 2.57227 75.9707C2.19727 75.873 1.85352 75.7227 1.54102 75.5195C1.23242 75.3125 0.984375 75.0469 0.796875 74.7227C0.613281 74.3984 0.521484 74.0117 0.521484 73.5625H1.23633C1.23633 73.9219 1.30859 74.2246 1.45312 74.4707C1.59766 74.7168 1.78906 74.916 2.02734 75.0684C2.26953 75.2207 2.53516 75.332 2.82422 75.4023C3.11719 75.4688 3.41016 75.502 3.70312 75.502C4.15234 75.502 4.54102 75.4355 4.86914 75.3027C5.20117 75.1699 5.45703 74.9844 5.63672 74.7461C5.82031 74.5039 5.91211 74.2227 5.91211 73.9023ZM13.5117 73.3398H14.2324C14.1738 73.9141 14.0156 74.4102 13.7578 74.8281C13.5 75.2422 13.1484 75.5605 12.7031 75.7832C12.2578 76.0059 11.7207 76.1172 11.0918 76.1172C10.6074 76.1172 10.168 76.0254 9.77344 75.8418C9.38281 75.6582 9.04688 75.3984 8.76562 75.0625C8.48438 74.7227 8.26758 74.3164 8.11523 73.8438C7.96289 73.3711 7.88672 72.8457 7.88672 72.2676V71.2012C7.88672 70.623 7.96289 70.0996 8.11523 69.6309C8.26758 69.1582 8.48633 68.752 8.77148 68.4121C9.05664 68.0723 9.39844 67.8105 9.79688 67.627C10.1953 67.4434 10.6445 67.3516 11.1445 67.3516C11.75 67.3516 12.2734 67.4629 12.7148 67.6855C13.1562 67.9043 13.5039 68.2207 13.7578 68.6348C14.0156 69.0488 14.1738 69.5488 14.2324 70.1348H13.5117C13.457 69.6738 13.3359 69.2832 13.1484 68.9629C12.9609 68.6426 12.7012 68.3984 12.3691 68.2305C12.041 68.0586 11.6328 67.9727 11.1445 67.9727C10.7461 67.9727 10.3906 68.0488 10.0781 68.2012C9.76562 68.3535 9.5 68.5723 9.28125 68.8574C9.0625 69.1387 8.89453 69.4766 8.77734 69.8711C8.66406 70.2656 8.60742 70.7051 8.60742 71.1895V72.2676C8.60742 72.7363 8.66211 73.168 8.77148 73.5625C8.88086 73.957 9.04102 74.2988 9.25195 74.5879C9.4668 74.877 9.72852 75.1016 10.0371 75.2617C10.3457 75.4219 10.6973 75.502 11.0918 75.502C11.5957 75.502 12.0156 75.4219 12.3516 75.2617C12.6914 75.0977 12.9551 74.8555 13.1426 74.5352C13.3301 74.2148 13.4531 73.8164 13.5117 73.3398ZM15.9727 67.4688H18.7441C19.334 67.4688 19.8457 67.5645 20.2793 67.7559C20.7129 67.9473 21.0469 68.2305 21.2812 68.6055C21.5195 68.9766 21.6387 69.4336 21.6387 69.9766C21.6387 70.3789 21.5527 70.7441 21.3809 71.0723C21.2129 71.4004 20.9805 71.6758 20.6836 71.8984C20.3867 72.1172 20.043 72.2676 19.6523 72.3496L19.4004 72.4434H16.4414L16.4297 71.8281H18.9082C19.3535 71.8281 19.7246 71.7422 20.0215 71.5703C20.3184 71.3984 20.541 71.1719 20.6895 70.8906C20.8418 70.6055 20.918 70.3008 20.918 69.9766C20.918 69.5898 20.834 69.2559 20.666 68.9746C20.502 68.6895 20.2578 68.4707 19.9336 68.3184C19.6094 68.166 19.2129 68.0898 18.7441 68.0898H16.6934V76H15.9727V67.4688ZM21.2402 76L19.0312 72.1855L19.8047 72.1797L22.0078 75.9238V76H21.2402ZM29.918 71.2773V72.1914C29.918 72.7891 29.8398 73.3301 29.6836 73.8145C29.5312 74.2949 29.3086 74.707 29.0156 75.0508C28.7266 75.3945 28.3789 75.6582 27.9727 75.8418C27.5664 76.0254 27.1094 76.1172 26.6016 76.1172C26.1055 76.1172 25.6523 76.0254 25.2422 75.8418C24.8359 75.6582 24.4863 75.3945 24.1934 75.0508C23.9004 74.707 23.6738 74.2949 23.5137 73.8145C23.3535 73.3301 23.2734 72.7891 23.2734 72.1914V71.2773C23.2734 70.6797 23.3516 70.1406 23.5078 69.6602C23.668 69.1758 23.8945 68.7617 24.1875 68.418C24.4805 68.0742 24.8301 67.8105 25.2363 67.627C25.6426 67.4434 26.0938 67.3516 26.5898 67.3516C27.0977 67.3516 27.5547 67.4434 27.9609 67.627C28.3672 67.8105 28.7168 68.0742 29.0098 68.418C29.3027 68.7617 29.5273 69.1758 29.6836 69.6602C29.8398 70.1406 29.918 70.6797 29.918 71.2773ZM29.2031 72.1914V71.2656C29.2031 70.7617 29.1445 70.3086 29.0273 69.9062C28.9141 69.5039 28.7441 69.1602 28.5176 68.875C28.2949 68.5898 28.0215 68.3711 27.6973 68.2188C27.373 68.0664 27.0039 67.9902 26.5898 67.9902C26.1875 67.9902 25.8262 68.0664 25.5059 68.2188C25.1855 68.3711 24.9121 68.5898 24.6855 68.875C24.4629 69.1602 24.291 69.5039 24.1699 69.9062C24.0527 70.3086 23.9941 70.7617 23.9941 71.2656V72.1914C23.9941 72.6992 24.0527 73.1562 24.1699 73.5625C24.291 73.9648 24.4648 74.3105 24.6914 74.5996C24.918 74.8848 25.1914 75.1035 25.5117 75.2559C25.8359 75.4082 26.1992 75.4844 26.6016 75.4844C27.0195 75.4844 27.3887 75.4082 27.709 75.2559C28.0293 75.1035 28.3008 74.8848 28.5234 74.5996C28.7461 74.3105 28.9141 73.9648 29.0273 73.5625C29.1445 73.1562 29.2031 72.6992 29.2031 72.1914ZM36.6738 75.3848V76H32.25V75.3848H36.6738ZM32.4609 67.4688V76H31.7402V67.4688H32.4609ZM43.002 75.3848V76H38.5781V75.3848H43.002ZM38.7891 67.4688V76H38.0684V67.4688H38.7891ZM49.6582 76H47.7246L47.7363 75.3848H49.6582C50.2715 75.3848 50.7988 75.248 51.2402 74.9746C51.6855 74.6973 52.0293 74.3145 52.2715 73.8262C52.5137 73.3379 52.6348 72.7715 52.6348 72.127V71.3301C52.6348 70.8379 52.5645 70.3926 52.4238 69.9941C52.2871 69.5957 52.0898 69.2559 51.832 68.9746C51.5742 68.6895 51.2656 68.4707 50.9062 68.3184C50.5508 68.166 50.1523 68.0898 49.7109 68.0898H47.6895V67.4688H49.7109C50.2422 67.4688 50.7285 67.5605 51.1699 67.7441C51.6152 67.9238 52 68.1855 52.3242 68.5293C52.6523 68.8691 52.9043 69.2773 53.0801 69.7539C53.2598 70.2305 53.3496 70.7617 53.3496 71.3477V72.127C53.3496 72.7129 53.2598 73.2441 53.0801 73.7207C52.9043 74.1973 52.6523 74.6055 52.3242 74.9453C51.9961 75.2852 51.6074 75.5469 51.1582 75.7305C50.709 75.9102 50.209 76 49.6582 76ZM48.0469 67.4688V76H47.3262V67.4688H48.0469ZM61.4883 71.2773V72.1914C61.4883 72.7891 61.4102 73.3301 61.2539 73.8145C61.1016 74.2949 60.8789 74.707 60.5859 75.0508C60.2969 75.3945 59.9492 75.6582 59.543 75.8418C59.1367 76.0254 58.6797 76.1172 58.1719 76.1172C57.6758 76.1172 57.2227 76.0254 56.8125 75.8418C56.4062 75.6582 56.0566 75.3945 55.7637 75.0508C55.4707 74.707 55.2441 74.2949 55.084 73.8145C54.9238 73.3301 54.8438 72.7891 54.8438 72.1914V71.2773C54.8438 70.6797 54.9219 70.1406 55.0781 69.6602C55.2383 69.1758 55.4648 68.7617 55.7578 68.418C56.0508 68.0742 56.4004 67.8105 56.8066 67.627C57.2129 67.4434 57.6641 67.3516 58.1602 67.3516C58.668 67.3516 59.125 67.4434 59.5312 67.627C59.9375 67.8105 60.2871 68.0742 60.5801 68.418C60.873 68.7617 61.0977 69.1758 61.2539 69.6602C61.4102 70.1406 61.4883 70.6797 61.4883 71.2773ZM60.7734 72.1914V71.2656C60.7734 70.7617 60.7148 70.3086 60.5977 69.9062C60.4844 69.5039 60.3145 69.1602 60.0879 68.875C59.8652 68.5898 59.5918 68.3711 59.2676 68.2188C58.9434 68.0664 58.5742 67.9902 58.1602 67.9902C57.7578 67.9902 57.3965 68.0664 57.0762 68.2188C56.7559 68.3711 56.4824 68.5898 56.2559 68.875C56.0332 69.1602 55.8613 69.5039 55.7402 69.9062C55.623 70.3086 55.5645 70.7617 55.5645 71.2656V72.1914C55.5645 72.6992 55.623 73.1562 55.7402 73.5625C55.8613 73.9648 56.0352 74.3105 56.2617 74.5996C56.4883 74.8848 56.7617 75.1035 57.082 75.2559C57.4062 75.4082 57.7695 75.4844 58.1719 75.4844C58.5898 75.4844 58.959 75.4082 59.2793 75.2559C59.5996 75.1035 59.8711 74.8848 60.0938 74.5996C60.3164 74.3105 60.4844 73.9648 60.5977 73.5625C60.7148 73.1562 60.7734 72.6992 60.7734 72.1914ZM65.4727 73.7441L67.3242 67.4688H67.9043L67.4355 69.332L65.4609 76H64.9043L65.4727 73.7441ZM63.3223 67.4688L64.8809 73.6855L65.3496 76H64.7695L62.584 67.4688H63.3223ZM70.4004 73.6855L71.9355 67.4688H72.6738L70.4941 76H69.9141L70.4004 73.6855ZM67.9688 67.4688L69.7969 73.7441L70.3594 76H69.8027L67.8691 69.332L67.3945 67.4688H67.9688ZM80.4199 67.4688V76H79.6934L74.7891 68.7109V76H74.0684V67.4688H74.7891L79.7051 74.7578V67.4688H80.4199Z" fill="black"/>
</svg>
